<svg version="1.1" viewBox="0.0 0.0 768.0 576.0" fill="none" stroke="none" stroke-linecap="square" stroke-miterlimit="10" xmlns:xlink="http://www.w3.org/1999/xlink" xmlns="http://www.w3.org/2000/svg"><clipPath id="ge4eedba546_1_27.0"><path d="m0 0l768.0 0l0 576.0l-768.0 0l0 -576.0z" clip-rule="nonzero"/></clipPath><g clip-path="url(#ge4eedba546_1_27.0)"><path fill="#000000" fill-opacity="0.0" d="m0 0l768.0 0l0 576.0l-768.0 0z" fill-rule="evenodd"/><path fill="#fffdfb" d="m151.34334 291.49936l54.104782 -64.66141l355.19202 0l54.104797 64.66141z" fill-rule="evenodd"/><path stroke="#000000" stroke-width="8.0" stroke-linejoin="round" stroke-linecap="butt" d="m151.34334 291.49936l54.104782 -64.66141l355.19202 0l54.104797 64.66141z" fill-rule="evenodd"/><path fill="#eadbb9" d="m339.32086 516.7588l130.99213 -487.874l30.425201 6.4566936l-130.99213 487.87402z" fill-rule="evenodd"/><path stroke="#000000" stroke-width="8.0" stroke-linejoin="round" stroke-linecap="butt" d="m339.32086 516.7588l130.99213 -487.874l30.425201 6.4566936l-130.99213 487.87402z" fill-rule="evenodd"/><path fill="#eadbb9" d="m347.72446 511.18356l245.25986 -451.90552l28.220459 12.031494l-245.25986 451.9055z" fill-rule="evenodd"/><path stroke="#000000" stroke-width="8.0" stroke-linejoin="round" stroke-linecap="butt" d="m347.72446 511.18356l245.25986 -451.90552l28.220459 12.031494l-245.25986 451.9055z" fill-rule="evenodd"/><path fill="#d69245" d="m151.34251 291.4567l41.633423 238.20474l380.1347 0l41.633423 -238.20474z" fill-rule="evenodd"/><path stroke="#000000" stroke-width="8.0" stroke-linejoin="round" stroke-linecap="butt" d="m151.34251 291.4567l41.633423 238.20474l380.1347 0l41.633423 -238.20474z" fill-rule="evenodd"/><path fill="#d69245" d="m211.46193 226.85458l-51.32187 61.339874l-137.21356 -27.95404l51.32186 -61.339874z" fill-rule="evenodd"/><path stroke="#000000" stroke-width="8.0" stroke-linejoin="round" stroke-linecap="butt" d="m211.46193 226.85458l-51.32187 61.339874l-137.21356 -27.95404l51.32186 -61.339874z" fill-rule="evenodd"/><path fill="#d69245" d="m556.8286 225.24379l50.48944 62.272293l137.76251 -25.705353l-50.48944 -62.272324z" fill-rule="evenodd"/><path stroke="#000000" stroke-width="8.0" stroke-linejoin="round" stroke-linecap="butt" d="m556.8286 225.24379l50.48944 62.272293l137.76251 -25.705353l-50.48944 -62.272324z" fill-rule="evenodd"/><path fill="#000000" fill-opacity="0.0" d="m203.89307 342.68454l358.2992 0l0 135.74802l-358.2992 0z" fill-rule="evenodd"/><path fill="#000000" d="m281.81613 443.84454l-15.328125 0q-4.453125 0 -6.328125 -0.296875q-1.875 -0.3125 -3.3125 -1.734375q-1.4218903 -1.4375 -1.7031403 -3.09375q-0.28125 -1.671875 -0.28125 -6.5l0 -45.421875q0 -6.09375 0.890625 -8.171875q0.89064026 -2.09375 2.9687653 -2.796875q2.09375 -0.703125 7.765625 -0.703125l15.046875 0q17.34375 0 24.703125 9.515625q7.359375 9.515625 7.359375 25.03125q0 15.609375 -7.59375 24.890625q-7.59375 9.28125 -24.1875 9.28125zm-13.125 -57.984375l0 47.25l10.640625 0q5.34375 0 9.46875 -1.21875q4.125 -1.21875 7.40625 -6.421875q3.28125 -5.203125 3.28125 -15.984375q0 -9.9375 -3.0 -15.046875q-3.0 -5.109375 -6.65625 -6.84375q-3.65625 -1.734375 -11.953125 -1.734375l-9.1875 0zm88.59375 51.9375q-9.140625 7.21875 -17.90625 7.21875q-8.296875 0 -12.75 -4.21875q-4.453125 -4.21875 -4.453125 -10.3125q0 -5.203125 3.015625 -8.40625q3.03125 -3.21875 6.59375 -4.484375q3.5625 -1.265625 11.59375 -2.921875q8.046875 -1.671875 12.96875 -3.078125q-0.046875 -5.8125 -2.296875 -7.84375q-2.25 -2.046875 -6.84375 -2.046875q-8.71875 0 -11.390625 4.875q-1.5 2.765625 -2.671875 3.9375q-1.171875 1.171875 -3.375 1.171875q-2.015625 0 -3.65625 -1.328125q-1.640625 -1.34375 -1.640625 -3.453125q0 -4.96875 5.390625 -9.4375q5.390625 -4.484375 16.96875 -4.484375q11.71875 0 17.15625 4.0625q5.4375 4.046875 5.109375 16.375l-0.28125 12.0q-0.1875 5.578125 1.140625 9.09375q1.34375 3.515625 1.34375 5.390625q0 2.015625 -1.78125 3.5625q-1.78125 1.546875 -4.03125 1.546875q-3.890625 0 -8.203125 -7.21875zm-0.84375 -18.515625q-2.859375 1.125 -9.453125 2.4375q-6.578125 1.3125 -9.328125 3.0q-2.734375 1.6875 -2.734375 4.921875q0 2.765625 2.171875 4.875q2.1875 2.109375 6.171875 2.109375q4.21875 0 7.84375 -2.3125q3.640625 -2.328125 4.484375 -5.515625q0.84375 -3.1875 0.84375 -9.515625zm40.359375 -2.203125l0 16.40625q0 7.640625 -1.96875 9.59375q-1.96875 1.9375 -5.0625 1.9375q-2.296875 0 -4.109375 -1.3125q-1.796875 -1.3125 -2.25 -3.234375q-0.4375 -1.921875 -0.4375 -6.984375l0 -46.6875q0 -5.859375 0.796875 -8.015625q0.796875 -2.15625 2.875 -2.90625q2.09375 -0.75 6.21875 -0.75l16.78125 0q15.0 0 20.3125 5.8125q5.328125 5.8125 5.328125 14.4375q0 21.703125 -25.640625 21.703125l-12.84375 0zm9.46875 -31.21875l-9.46875 0l0 20.4375l9.46875 0q8.625 0 11.765625 -2.765625q3.140625 -2.765625 3.140625 -7.5q0 -3.375 -1.765625 -6.0q-1.75 -2.625 -4.703125 -3.390625q-2.953125 -0.78125 -8.4375 -0.78125zm68.43747 51.9375q-9.140625 7.21875 -17.90622 7.21875q-8.296875 0 -12.75 -4.21875q-4.453125 -4.21875 -4.453125 -10.3125q0 -5.203125 3.015625 -8.40625q3.03125 -3.21875 6.59375 -4.484375q3.5625 -1.265625 11.5937195 -2.921875q8.046875 -1.671875 12.96875 -3.078125q-0.046875 -5.8125 -2.296875 -7.84375q-2.25 -2.046875 -6.84375 -2.046875q-8.7187195 0 -11.3905945 4.875q-1.5 2.765625 -2.671875 3.9375q-1.171875 1.171875 -3.375 1.171875q-2.015625 0 -3.65625 -1.328125q-1.640625 -1.34375 -1.640625 -3.453125q0 -4.96875 5.390625 -9.4375q5.390625 -4.484375 16.96872 -4.484375q11.71875 0 17.15625 4.0625q5.4375 4.046875 5.109375 16.375l-0.28125 12.0q-0.1875 5.578125 1.140625 9.09375q1.34375 3.515625 1.34375 5.390625q0 2.015625 -1.78125 3.5625q-1.78125 1.546875 -4.03125 1.546875q-3.890625 0 -8.203125 -7.21875zm-0.84375 -18.515625q-2.859375 1.125 -9.453125 2.4375q-6.5780945 1.3125 -9.3280945 3.0q-2.734375 1.6875 -2.734375 4.921875q0 2.765625 2.171875 4.875q2.1875 2.109375 6.1718445 2.109375q4.21875 0 7.84375 -2.3125q3.640625 -2.328125 4.484375 -5.515625q0.84375 -3.1875 0.84375 -9.515625zm38.34375 -34.78125l0 49.921875q0 4.640625 -0.421875 6.3125q-0.421875 1.65625 -2.15625 2.96875q-1.734375 1.3125 -3.75 1.3125q-2.0625 0 -3.84375 -1.28125q-1.78125 -1.296875 -2.203125 -3.03125q-0.421875 -1.734375 -0.421875 -6.28125l0 -49.921875q0 -4.734375 0.4375 -6.390625q0.453125 -1.671875 2.15625 -2.90625q1.71875 -1.25 3.734375 -1.25q2.34375 0 4.046875 1.34375q1.71875 1.328125 2.0625 3.140625q0.359375 1.796875 0.359375 6.0625z" fill-rule="nonzero"/><path fill="#000000" fill-opacity="0.0" d="m283.29077 12.443569c-20.409271 18.103197 -54.18698 42.664047 -43.467377 66.4413c7.6586304 16.987701 32.120575 25.502243 38.63553 42.86177c9.629242 25.657745 -5.6809387 55.11505 -19.317749 79.29898" fill-rule="evenodd"/><path stroke="#595959" stroke-width="1.0" stroke-linejoin="round" stroke-linecap="butt" d="m283.29077 12.443569c-20.409271 18.103197 -54.18698 42.664047 -43.467377 66.4413c7.6586304 16.987701 32.120575 25.502243 38.63553 42.86177c9.629242 25.657745 -5.6809387 55.11505 -19.317749 79.29898" fill-rule="evenodd"/><path fill="#000000" fill-opacity="0.0" d="m371.1685 12.443569c-20.409271 18.103197 -54.18698 42.664047 -43.467377 66.4413c7.6586304 16.987701 32.120575 25.502243 38.63553 42.86177c9.629242 25.657745 -5.6809387 55.11505 -19.31778 79.29898" fill-rule="evenodd"/><path stroke="#595959" stroke-width="1.0" stroke-linejoin="round" stroke-linecap="butt" d="m371.1685 12.443569c-20.409271 18.103197 -54.18698 42.664047 -43.467377 66.4413c7.6586304 16.987701 32.120575 25.502243 38.63553 42.86177c9.629242 25.657745 -5.6809387 55.11505 -19.31778 79.29898" fill-rule="evenodd"/></g></svg>